<?xml version="1.0" encoding="utf-8"?>
<!-- Generator: Adobe Illustrator 21.0.0, SVG Export Plug-In . SVG Version: 6.00 Build 0)  -->
<svg version="1.1" id="图层_1" xmlns="http://www.w3.org/2000/svg" xmlns:xlink="http://www.w3.org/1999/xlink" x="0px" y="0px"
	 viewBox="0 0 24 24" style="enable-background:new 0 0 24 24;" xml:space="preserve">
<style type="text/css">
	.st0{fill:#FF0000;}
</style>
<path class="st0" d="M12,18.5l-7.4-5.7L4,13.3c-0.5,0.4-0.5,1.2,0,1.6l7.4,5.7c0.4,0.3,0.9,0.3,1.2,0l7.4-5.7c0.5-0.4,0.5-1.2,0-1.6
	l-0.6-0.5L12,18.5z M11.4,15.5c0.4,0.3,0.9,0.3,1.2,0l6.7-5.3L20,9.8c0.5-0.4,0.5-1.2,0-1.6l-7.4-5.7c-0.4-0.3-0.9-0.3-1.2,0L4,8.2
	C3.5,8.6,3.5,9.4,4,9.8l0.6,0.5L11.4,15.5z"/>
</svg>
